# xmcd
# 
# Track frame offsets:
#     150
#     22740
#     51762
#     74224
#     92658
#     130828
#     152612
#     174076
#     212721
# 
# Disc length: 3028
# 
# Revision: 0
# Processed by: cddbd v1.5.2PL0 Copyright (c) Steve Scherf et al.
# Submitted via: BonkEnc v1.0.8
# 
DISCID=700bd209
DTITLE=Buddy Guy - Breaking Out
DYEAR=0
DGENRE=Blues
TTITLE0=I Didn't Know My Mother had a Son like Me
TTITLE1=Have You Ever Been Lonesome
TTITLE2=She Winked Her Eye
TTITLE3=Boogie Family Style
TTITLE4=Breakout All Over You
TTITLE5=You Called me in My Dreams
TTITLE6=Me and My Guitar
TTITLE7=You Can Make it if You try
TTITLE8=Feelin Sexy
EXTD=
EXTT0=
EXTT1=
EXTT2=
EXTT3=
EXTT4=
EXTT5=
EXTT6=
EXTT7=
EXTT8=
PLAYORDER=
